<?xml version="1.0" encoding="UTF-8"?>
<svg width="142px" height="56px" viewBox="0 0 142 56" version="1.1" xmlns="http://www.w3.org/2000/svg" xmlns:xlink="http://www.w3.org/1999/xlink">
    <title>sc-logo</title>
    <g id="Page-1" stroke="none" stroke-width="1" fill="none" fill-rule="evenodd">
        <g id="sc-logo">
            <path d="M2.36013116,26.8546387 L32.4626898,46.6727798 C34.784648,48.2030892 35.4187548,51.3328119 33.9259696,53.6937529 C32.3927265,56.1187392 29.2416425,56.6539132 26.9807723,55.1729979 L3.78668263,39.9079877 C3.78668263,39.9079877 0.877543007,38.2178038 0.21147594,35.0680371 C-0.663989685,30.9279927 1.98282732,27.341178 2.32428571,26.9001543 L2.36013116,26.8546387 L2.36013116,26.8546387 Z M28.8786173,11.4115903 C31.6098274,11.4110177 33.8239139,13.6498337 33.8239139,16.4108905 C33.8239139,19.1719474 31.6098274,21.4101429 28.8786173,21.4101429 C27.7243654,21.4101429 26.8485974,21.0297847 26.0139954,20.4864977 L26.0139954,20.4864977 L19.8235231,16.4109382 L26.0139954,12.3351879 C26.8404776,11.7912327 27.6877787,11.411829 28.8786173,11.4115903 Z" id="Combined-Shape" fill="#38D200"></path>
            <path d="M4.9453674,45.98342 C6.09961928,45.98342 6.97538724,46.3638736 7.80989483,46.9070652 L7.80989483,46.9070652 L14.0003672,50.9825769 L7.80989483,55.058375 C6.98341272,55.6023302 6.13615879,55.9817339 4.9453674,55.9819726 C2.21411003,55.9825929 2.36043327e-05,53.7437769 2.36043327e-05,50.9827201 C2.36043327e-05,48.221711 2.21411003,45.98342 4.9453674,45.98342 Z M24.6330381,2.35674611 C26.1437626,4.70604254 25.4844464,7.84855522 23.160411,9.37571482 L12.4733132,16.4109573 L30.6827814,28.3993034 C30.6827814,28.3993034 30.7496713,28.438056 30.8662226,28.5138312 L31.0288191,28.6224214 C31.8885531,29.2110727 34.089557,30.9390462 34.6062464,33.5024981 C35.5075543,37.973401 32.4634451,41.6566236 32.4634451,41.6566236 L5.01103938,23.5832624 C5.01103938,23.5832624 1.45806797,21.4145049 1.45806797,16.3985492 C1.45806797,11.3992967 5.00962312,9.25812353 5.00962312,9.25812353 L17.6897764,0.868004112 C20.0139062,-0.659155492 23.122408,0.00744967544 24.6330381,2.35674611 Z" id="Combined-Shape" fill="#0473EA"></path>
            <path d="M139.193529,27.0784296 L141.012951,28.2018942 L141.012951,41.6378921 L139.193529,41.6378921 L139.193529,39.7396804 C138.306195,41.0630597 136.886158,41.8705453 135.177629,41.8705453 C131.982499,41.8705453 129.69727,39.4705185 129.69727,36.1957634 C129.69727,32.8537178 131.982499,30.4088307 135.177629,30.4088307 C136.886158,30.4088307 138.306195,31.2388419 139.193529,32.5846036 L139.193529,27.0784296 Z M92.8279293,27.073328 L94.6252104,28.1962675 L94.6252104,37.962835 C94.6252104,39.5104681 95.5570151,40.1160823 96.7331246,40.1160823 C97.6206475,40.1160823 98.5079816,39.8693506 99.2846586,39.3085967 L99.2846586,41.0806268 C98.5304057,41.6413807 97.4873774,41.8655868 96.5776664,41.8655868 C94.247966,41.8655868 92.8279293,40.8113694 92.8279293,37.8282063 L92.8279293,27.073328 Z M123.257304,30.3788459 C126.407963,30.3788459 128.47136,32.7339646 128.47136,35.8966167 C128.47136,36.2106389 128.449219,36.5246133 128.40489,36.8162531 L119.773871,36.8162531 C120.039986,38.812537 121.593293,40.1359163 123.76763,40.1359163 C125.165478,40.1359163 126.518856,39.7321735 127.672778,38.9022577 L127.672778,40.6517622 C126.496716,41.4592955 125.165478,41.8405605 123.76763,41.8405605 C120.328478,41.8405605 117.865697,39.5975448 117.865697,36.2106389 C117.865697,32.8909757 119.951234,30.3788459 123.257304,30.3788459 Z M77.0628786,30.3788172 C78.7714074,30.3788172 80.1690672,31.1863506 81.0787782,32.5097298 L81.0787782,30.5806886 L82.8982002,30.5806886 L82.8982002,41.6386604 L81.0787782,41.6386604 L81.0787782,39.7545273 C80.1690672,41.0555241 78.7714074,41.8405318 77.0628786,41.8405318 C73.8677489,41.8405318 71.582519,39.4405051 71.582519,36.1657499 C71.582519,32.8237043 73.8677489,30.3788172 77.0628786,30.3788172 Z M54.4978586,30.3788172 C55.8069077,30.3788172 57.0272517,30.7602253 58.0036213,31.5003251 L58.0036213,33.5414693 C57.1381449,32.5994505 55.9401777,32.1059393 54.6087045,32.1059393 C52.2790513,32.1059393 50.6371339,33.7433407 50.6371339,36.0985072 C50.6371339,38.4536259 52.301381,40.1134098 54.6311286,40.1134098 C55.9401777,40.1134098 57.1605218,39.7545273 58.1145145,38.9246592 L58.1145145,40.7863145 C57.0493926,41.5265096 55.7847668,41.8405318 54.4535296,41.8405318 C51.103225,41.8405318 48.7734774,39.4854131 48.7734774,36.0985072 C48.7734774,32.7339837 51.1696476,30.3788172 54.4978586,30.3788172 Z M104.752796,30.3788459 C107.903455,30.3788459 109.966851,32.7339646 109.966851,35.8966167 C109.966851,36.2106389 109.94471,36.5246133 109.900382,36.8162531 L101.269363,36.8162531 C101.535478,38.812537 103.088785,40.1359163 105.263122,40.1359163 C106.66097,40.1359163 108.014348,39.7321735 109.16827,38.9022577 L109.16827,40.6517622 C107.992207,41.4592955 106.66097,41.8405605 105.263122,41.8405605 C101.82397,41.8405605 99.3611885,39.5975448 99.3611885,36.2106389 C99.3611885,32.8909757 101.446726,30.3788459 104.752796,30.3788459 Z M60.1112664,27.0754278 L61.9084059,28.1984151 L61.9085475,32.4648218 C62.729459,31.1863506 64.0385553,30.3788172 65.7025191,30.3788172 C68.4538402,30.3788172 69.9183002,32.4199615 69.9183002,35.1340104 L69.9183002,41.6386604 L68.0989254,41.6386604 L68.0989254,35.4479849 C68.0989254,33.2947376 67.1670736,32.1508473 65.2588993,32.1508473 C63.2397375,32.1508473 61.9085475,33.9003518 61.9085475,36.0985072 L61.9085475,41.6386604 L60.1112664,41.6386604 L60.1112664,27.0754278 Z M91.4846964,30.3788172 L91.4846964,32.4648218 C89.3104069,32.1508473 87.4909849,33.6312377 87.4909849,36.3676213 L87.4909849,41.6386604 L85.6937038,41.6386604 L85.6937038,30.5806886 L87.4909849,30.5806886 L87.4909849,32.9358551 C88.3561781,31.2984536 89.7540739,30.3788172 91.4846964,30.3788172 Z M117.732446,30.3788172 L117.732446,32.4648218 C115.558109,32.1508473 113.738687,33.6312377 113.738687,36.3676213 L113.738687,41.6386604 L111.941453,41.6386604 L111.941453,30.5806886 L113.738687,30.5806886 L113.738687,32.9358551 C114.60388,31.2984536 116.001776,30.3788172 117.732446,30.3788172 Z M135.355228,32.1359527 C133.136421,32.1359527 131.560973,33.8405969 131.560973,36.1733809 C131.560973,38.4611615 133.136421,40.1434232 135.355228,40.1434232 C137.596176,40.1434232 139.193529,38.4611615 139.193529,36.1733809 C139.193529,33.8405969 137.596176,32.1359527 135.355228,32.1359527 Z M77.2404776,32.1059393 C75.0216703,32.1059393 73.4462227,33.8106312 73.4462227,36.1433675 C73.4462227,38.431148 75.0216703,40.1134098 77.2404776,40.1134098 C79.4814258,40.1134098 81.0787782,38.431148 81.0787782,36.1433675 C81.0787782,33.8106312 79.4814258,32.1059393 77.2404776,32.1059393 Z M104.774937,32.0611076 C102.778199,32.0611076 101.579996,33.4742075 101.291551,35.3358628 L108.058866,35.3358628 C107.881314,33.4517296 106.705252,32.0611076 104.774937,32.0611076 Z M123.279445,32.0611076 C121.282707,32.0611076 120.084504,33.4742075 119.796012,35.3358628 L126.563374,35.3358628 C126.385822,33.4517296 125.20976,32.0611076 123.279445,32.0611076 Z M96.0213265,30.4231526 C96.4828384,30.1266927 97.0737021,30.1318946 97.5301626,30.4364198 L97.5301626,30.4364198 L99.3404734,31.6542341 L97.5530116,32.8130619 C97.0975896,33.1083764 96.5138073,33.10914 96.0575827,32.8150186 L96.0575827,32.8150186 L96.0192965,32.7903931 C95.1629313,32.2382772 95.1640171,30.9737891 96.0213265,30.4231526 Z M70.6728363,14.2084162 C72.3813651,14.2084162 73.7792137,15.0159018 74.6886887,16.3393288 L74.6886887,14.4102876 L76.5081107,14.4102876 L76.5081107,25.4682594 L74.6886887,25.4682594 L74.6886887,23.5841262 C73.7792137,24.885123 72.3813651,25.6701308 70.6728363,25.6701308 C67.4777066,25.6701308 65.1924295,23.270104 65.1924295,19.9953489 C65.1924295,16.6533032 67.4777066,14.2084162 70.6728363,14.2084162 Z M59.9784306,10.8674491 L59.9784306,21.7673599 C59.9784306,23.314993 60.9102825,23.9206072 62.0862976,23.9206072 C62.9738677,23.9206072 63.8612018,23.6738755 64.6378787,23.1131216 L64.6378787,24.8851517 C63.8836259,25.4459056 62.8405976,25.6701117 61.9308866,25.6701117 C59.6011862,25.6701117 58.1811495,24.6158943 58.1811495,21.6327312 L58.1811495,11.991534 L59.9784306,10.8674491 Z M135.372667,10.8682318 L135.372667,25.4682594 L133.553245,25.4682594 L133.553245,23.5392659 C132.665911,24.8626451 131.245921,25.6701308 129.537393,25.6701308 C126.342263,25.6701308 124.057033,23.270104 124.057033,19.9953489 C124.057033,16.6533032 126.342263,14.2084162 129.537393,14.2084162 C131.245921,14.2084162 132.665911,15.0384274 133.553245,16.3841891 L133.553245,11.9909327 L135.372667,10.8682318 Z M109.523595,14.2084162 C111.232124,14.2084162 112.629784,15.0159018 113.539495,16.3393288 L113.539495,14.4102876 L115.358917,14.4102876 L115.358917,25.4682594 L113.539495,25.4682594 L113.539495,23.5841262 C112.629784,24.885123 111.232124,25.6701308 109.523595,25.6701308 C106.328513,25.6701308 104.043235,23.270104 104.043235,19.9953489 C104.043235,16.6533032 106.328513,14.2084162 109.523595,14.2084162 Z M52.7007946,14.2084257 C53.987514,14.2084257 55.18567,14.5673082 56.0287695,15.2178305 L56.0287695,17.1242984 C55.0304951,16.2271875 53.8099622,15.7113417 52.7228883,15.7113417 C51.5690141,15.7113417 50.7480554,16.24957 50.7480554,17.146824 C50.7480554,17.8196809 51.0587356,18.2234715 51.9241649,18.5598284 L54.5202166,19.6140935 C55.9178292,20.2197077 56.5614249,21.0720059 56.5614249,22.2607565 C56.5614249,24.369239 54.8750842,25.6701403 52.5010548,25.6701403 C51.0587356,25.6701403 49.7495921,25.2663975 48.7955994,24.5486325 L48.7955994,22.5748742 C49.949332,23.6738564 51.2362402,24.1673676 52.5232428,24.1673676 C53.8099622,24.1673676 54.7420501,23.6066136 54.7420501,22.5972566 C54.7420501,21.9915946 54.4314171,21.5206091 53.6104584,21.184109 L51.0144067,20.1299393 C49.6832167,19.5468507 48.9510575,18.7842254 48.9510575,17.3486954 C48.9510575,15.4197019 50.4819873,14.2084257 52.7007946,14.2084257 Z M102.090553,10.8682318 L102.090553,25.4682594 L100.271131,25.4682594 L100.271131,23.5392659 C99.3837968,24.8626451 97.9638073,25.6701308 96.2552785,25.6701308 C93.0601487,25.6701308 90.7749189,23.270104 90.7749189,19.9953489 C90.7749189,16.6533032 93.0601487,14.2084162 96.2552785,14.2084162 C97.9638073,14.2084162 99.3837968,15.0384274 100.271131,16.3841891 L100.271131,11.9909327 L102.090553,10.8682318 Z M123.945413,14.2084114 L123.945413,16.294416 C121.771123,15.9804415 119.951701,17.4608318 119.951701,20.1972155 L119.951701,25.4682546 L118.15442,25.4682546 L118.15442,14.4102828 L119.951701,14.4102828 L119.951701,16.7654493 C120.816895,15.1280478 122.21479,14.2084114 123.945413,14.2084114 Z M84.894919,14.2084114 C87.6461928,14.2084114 89.1107001,16.2495556 89.1107001,18.9636046 L89.1107001,25.4682546 L87.2912781,25.4682546 L87.2912781,19.2775791 C87.2912781,17.1243318 86.3594735,15.9804415 84.451252,15.9804415 C82.4321373,15.9804415 81.1009002,17.729946 81.1009002,19.9281013 L81.1009002,25.4682546 L79.303619,25.4682546 L79.303619,14.4102828 L81.1009002,14.4102828 L81.1009002,16.294416 C81.9218589,15.015897 83.230908,14.2084114 84.894919,14.2084114 Z M70.8503881,15.9355382 C68.6315808,15.9355382 67.0561332,17.6402301 67.0561332,19.9729664 C67.0561332,22.260747 68.6315808,23.9430087 70.8503881,23.9430087 C73.0913363,23.9430087 74.6886887,22.260747 74.6886887,19.9729664 C74.6886887,17.6402301 73.0913363,15.9355382 70.8503881,15.9355382 Z M96.4328303,15.9355382 C94.214023,15.9355382 92.6386226,17.6402301 92.6386226,19.9729664 C92.6386226,22.260747 94.214023,23.9430087 96.4328303,23.9430087 C98.6738256,23.9430087 100.271131,22.260747 100.271131,19.9729664 C100.271131,17.6402301 98.6738256,15.9355382 96.4328303,15.9355382 Z M129.714944,15.9355382 C127.496137,15.9355382 125.920737,17.6402301 125.920737,19.9729664 C125.920737,22.260747 127.496137,23.9430087 129.714944,23.9430087 C131.95594,23.9430087 133.553245,22.260747 133.553245,19.9729664 C133.553245,17.6402301 131.95594,15.9355382 129.714944,15.9355382 Z M109.701194,15.9355382 C107.482387,15.9355382 105.906939,17.6402301 105.906939,19.9729664 C105.906939,22.260747 107.482387,23.9430087 109.701194,23.9430087 C111.942142,23.9430087 113.539495,22.260747 113.539495,19.9729664 C113.539495,17.6402301 111.942142,15.9355382 109.701194,15.9355382 Z M62.4836057,14.3902341 C62.9383196,14.0938696 63.5221019,14.0916744 63.9790346,14.3846981 L63.9790346,14.3846981 L64.017368,14.4092758 C64.8750079,14.9592919 64.8769434,16.2238278 64.0208615,16.7764687 C63.5600105,17.0740739 62.969194,17.070256 62.5120253,16.7668285 L62.5120253,16.7668285 L60.6988821,15.553357 Z" id="Combined-Shape" fill="#525355"></path>
        </g>
    </g>
</svg>