<svg id="Layer_1" data-name="Layer 1" xmlns="http://www.w3.org/2000/svg" viewBox="0 0 512 512"><title>world-globe-earth-glyph</title><path id="_31" data-name="31" d="M256,0C114.9,0,0,114.83,0,256S114.9,512,256,512,512,397.17,512,256,397.16,0,256,0Zm0,494.35C124.61,494.35,17.7,387.42,17.7,256S124.61,17.65,256,17.65,494.3,124.58,494.3,256,387.41,494.35,256,494.35ZM225.16,102.93H236.4V89.57h-9.85V55.14h14V37.58l.81-1.87c2.49-.05,5-.22,7.62-.22A220,220,0,0,1,282,38V49.55h16.11V93.42H285.89l-10.57,10.51-25.61,25.7L236.4,143,225.16,131.7ZM182,45.74l4.16,4.18-7.43,7.36H166.13v12.6h26.66v58.3H172.46V86h-14.1V65.64h-9.07V77.59l-8.79,8.8H119.78l-5.68-5.71A223.12,223.12,0,0,1,182,45.74Zm73.3,326.12H236.4l-9.85,14.07v31.59l-28.81,21.09v37.9L165.41,447V369.77L131,337.43v-39.3L107.15,280.6H86.07L71,265.48V244.74l-10.15-6.27L58,246.16,62.89,249v17.61L50.26,251.1l-6.33-24.61-5.64-1.4V182.15a225.42,225.42,0,0,1,51.13-79.93l70.34.71L157,117.67l-21.09,1.38,2.12,7L143,131.7l-5.62,9.11-16.88-2.07,9.89,13.36L147.15,164l5.62,13.36,7-2.07V140.81h19v4.25h19.68V168.9H190v9.85h-8.46v6.34h11.94l-7.73,7.71-3.13-3.14L175.25,197v6.31L168.6,210l-8.44,8.42-9.84,9.85-6.62,6.65V256h-9.23V244.74H104.33v12.73l29.5,28.09h59v5.62h21.13l23.15,29.47h18.26ZM434.39,241.21V259.5H404.21L389.4,244.74v-9.8h-8.68V248.7l20,20h22.84v16.49l-20.77,20.72v58.3H387V394l-12.29,12.25H345.81V379.71l-15.61-15.54V315.29l-19.39-19.38H270.23l-16-16V239.45L268,225.81h23.15l14.76-14.74h17.62v7.73h54v-9.45H363.88l8-8.11,7.74-7.71h13.28l-8.38-8.34H372l-13.29,13.23V208.8l-14.15-14.23h-8.83l13,13H338.19l-8.43-8.44v-5.63l-12.64-12.6-9.45,9.47-8.1,8.07v14.73H283.4V183.69h6V178.4l3.84-3.85-6.94-7.05-9.2,9.14-7.35-7.4,3.91-3.84V144.34h14.72v8.43l12.58,12.63h9.21v-9.85h28.06v-9.82h11.24v-14h-11.9V118.34h-6.34v26.72l-5,4.89-9.8-4.22-16.86-4.18,1.35-16.14,16.94-12.65,9.78-16.83,18.27-4.22-2.05,8.4,11.9,2.09-.68,8.4,13.32-1.42,6.34-4.2,1.34-7h28.17a223.91,223.91,0,0,1,69.46,162.19c0,3.45-.11,6.84-.27,10.27l-48.88-48.92-4.93,4.93Z" fill="#231f20"/></svg>